<svg xmlns="http://www.w3.org/2000/svg" xmlns:xlink="http://www.w3.org/1999/xlink" width="1920" zoomAndPan="magnify" viewBox="0 0 1440 809.999993" height="1080" preserveAspectRatio="xMidYMid meet" version="1.0"><path fill="#058e4c" d="M 936 189 L 801 189 L 801 270 L 855 270 L 855 297 L 801 297 L 801 351 L 855 351 L 855 378 L 801 378 L 801 432 L 855 432 L 855 459 L 801 459 L 801 513 L 855 513 L 855 540 L 801 540 L 801 621 L 936 621 C 965.835938 621 990 596.835938 990 567 L 990 243 C 990 213.164062 965.835938 189 936 189 Z M 936 540 L 882 540 L 882 513 L 936 513 Z M 936 459 L 882 459 L 882 432 L 936 432 Z M 936 378 L 882 378 L 882 351 L 936 351 Z M 936 297 L 882 297 L 882 270 L 936 270 Z M 936 297 " fill-opacity="1" fill-rule="nonzero"/><path fill="#058e4c" d="M 450 189 L 450 621 L 774 675 L 774 135 Z M 638.539062 513 L 603.46875 442.585938 C 602.144531 440.101562 600.578125 435.105469 599.28125 428.164062 L 598.769531 428.164062 C 597.988281 431.488281 596.421875 436.480469 594.046875 443.152344 L 558.703125 513 L 504 513 L 568.90625 404.863281 L 509.507812 297 L 565.53125 297 L 594.585938 361.609375 C 596.933594 366.875 598.769531 372.976562 600.605469 379.917969 L 601.390625 379.917969 C 602.441406 375.757812 604.519531 369.386719 607.679688 361.070312 L 640.132812 297 L 691.191406 297 L 630.199219 404.027344 L 693 513 Z M 638.539062 513 " fill-opacity="1" fill-rule="nonzero"/></svg>