<svg xmlns="http://www.w3.org/2000/svg" xmlns:xlink="http://www.w3.org/1999/xlink" width="1920" zoomAndPan="magnify" viewBox="0 0 1440 809.999993" height="1080" preserveAspectRatio="xMidYMid meet" version="1.0"><defs><clipPath id="9dd128f754"><path d="M 433.5 147 L 1006.5 147 L 1006.5 663 L 433.5 663 Z M 433.5 147 " clip-rule="nonzero"/></clipPath></defs><g clip-path="url(#9dd128f754)"><path fill="#004aad" d="M 720 147.003906 L 433.5 204.335938 L 433.5 605.664062 L 720 662.996094 Z M 777.300781 204.335938 L 777.300781 261.667969 L 949.199219 261.667969 L 949.199219 319 L 777.300781 319 L 777.300781 376.332031 L 949.199219 376.332031 L 949.199219 433.667969 L 777.300781 433.667969 L 777.300781 491 L 949.199219 491 L 949.199219 548.332031 L 777.300781 548.332031 L 777.300781 605.664062 L 1006.5 605.664062 L 1006.5 204.335938 Z M 470.597656 298.789062 L 514.582031 298.789062 L 528.683594 398.503906 C 529.6875 404.496094 530.46875 412.65625 530.699219 422.75 L 531.425781 422.75 C 531.652344 415.382812 532.699219 406.976562 534.445312 397.945312 L 552.519531 298.789062 L 606.070312 298.789062 L 622.800781 397.609375 C 623.804688 402.796875 624.519531 410.421875 625.265625 420.285156 L 625.824219 420.285156 C 626.054688 412.632812 626.808594 404.6875 627.78125 396.488281 L 641.492188 298.789062 L 682.84375 298.789062 L 643.226562 511.210938 L 605.566406 511.210938 L 580.386719 397.664062 C 579.125 390.585938 578.433594 382.613281 578.148438 373.871094 L 577.644531 373.871094 C 577.128906 383.414062 576.136719 391.359375 574.902344 397.664062 L 549.21875 511.210938 L 510.050781 511.210938 Z M 470.597656 298.789062 " fill-opacity="1" fill-rule="nonzero"/></g></svg>