<svg xmlns="http://www.w3.org/2000/svg" xmlns:xlink="http://www.w3.org/1999/xlink" width="1920" zoomAndPan="magnify" viewBox="0 0 1440 809.999993" height="1080" preserveAspectRatio="xMidYMid meet" version="1.0"><path fill="#e16b21" d="M 940.800781 184.199219 L 802.800781 184.199219 L 802.800781 299.652344 C 811.464844 296.585938 820.65625 294.601562 830.398438 294.601562 L 830.398438 377.125 L 913.199219 377.398438 C 913.199219 423.214844 876.214844 460.199219 830.398438 460.199219 C 820.65625 460.199219 811.464844 458.210938 802.800781 455.148438 L 802.800781 515.398438 L 913.199219 515.398438 L 913.199219 543 L 802.800781 543 L 802.800781 625.800781 L 940.800781 625.800781 C 971.296875 625.800781 996 601.097656 996 570.601562 L 996 239.398438 C 996 208.902344 971.296875 184.199219 940.800781 184.199219 Z M 858 349.800781 L 858 267 C 903.816406 267 940.800781 303.984375 940.800781 349.800781 Z M 858 349.800781 " fill-opacity="1" fill-rule="nonzero"/><path fill="#e16b21" d="M 597.980469 332.855469 L 577.941406 332.855469 L 577.941406 401.742188 L 597.980469 401.742188 C 625 401.742188 638.664062 390.125 638.664062 366.882812 C 638.664062 344.195312 625 332.855469 597.980469 332.855469 Z M 597.980469 332.855469 " fill-opacity="1" fill-rule="nonzero"/><path fill="#e16b21" d="M 444 184.199219 L 444 625.800781 L 775.199219 681 L 775.199219 129 Z M 668 418.746094 C 651.441406 432.628906 629.664062 439.445312 602.339844 439.445312 L 577.941406 439.445312 L 577.941406 515.398438 L 526.800781 515.398438 L 526.800781 294.601562 L 606.703125 294.601562 C 663.917969 294.601562 692.398438 318.113281 692.398438 364.898438 C 692.398438 387.28125 684.257812 405.136719 668 418.746094 Z M 668 418.746094 " fill-opacity="1" fill-rule="nonzero"/></svg>